<?xml version="1.0" encoding="UTF-8"?> <svg xmlns="http://www.w3.org/2000/svg" width="435" height="236" viewBox="0 0 435 236" fill="none"><path d="M147.5 93L96 210.5H20L147.5 93Z" fill="#FF4081" fill-opacity="0.3" stroke="#FF4081" stroke-width="3" stroke-linejoin="round"></path><path d="M35 211C35 209.03 34.612 207.08 33.8582 205.26C33.1044 203.44 31.9995 201.786 30.6066 200.393L20 211H35Z" stroke="#FF4081" stroke-width="1.5" stroke-linejoin="round"></path><path d="M40 211C40 208.374 39.4827 205.773 38.4776 203.346C37.4725 200.92 35.9993 198.715 34.1421 196.858L20 211H40Z" stroke="#FF4081" stroke-width="1.5" stroke-linejoin="round"></path><path d="M124.205 113.585C127.359 117.046 131.28 119.722 135.653 121.396L146.381 93.3801L124.205 113.585Z" stroke="#FF4081" stroke-width="1.5" stroke-linejoin="round"></path><path d="M89 210.5C89 209.235 89.3202 207.99 89.9307 206.881C90.5412 205.773 91.4223 204.837 92.4918 204.161C93.5614 203.485 94.7846 203.09 96.0477 203.014C97.3108 202.937 98.5727 203.182 99.7158 203.724L96.5 210.5H89Z" stroke="#FF4081" stroke-width="1.5" stroke-linejoin="round"></path><path d="M83 210.5C83 208.391 83.5336 206.316 84.5512 204.469C85.5687 202.622 87.0371 201.062 88.8197 199.935C90.6023 198.808 92.641 198.15 94.7462 198.023C96.8513 197.896 98.9545 198.303 100.86 199.207L95.5 210.5H83Z" stroke="#FF4081" stroke-width="1.5" stroke-linejoin="round"></path><path d="M78 210.5C78 207.547 78.7471 204.643 80.1716 202.057C81.5962 199.47 83.652 197.287 86.1476 195.709C88.6432 194.131 91.4974 193.21 94.4446 193.032C97.3919 192.854 100.336 193.424 103.004 194.69L95.5 210.5H78Z" stroke="#FF4081" stroke-width="1.5" stroke-linejoin="round"></path><g clip-path="url(#clip0_2023:41029)"><path d="M7.15907 228.553C7.15907 228.866 7.46572 229.048 8.07903 229.101C8.31902 229.101 8.43902 229.172 8.43902 229.316C8.43902 229.329 8.42568 229.413 8.39902 229.57C8.35902 229.752 8.31902 229.87 8.27902 229.922C8.23902 229.974 8.15236 230 8.01903 230C7.99237 230 7.91237 230 7.77904 230C7.64572 230 7.41906 229.993 7.09907 229.98C6.77909 229.967 6.35244 229.961 5.81913 229.961C4.8725 229.961 4.26586 229.974 3.99921 230H3.83921C3.74588 229.909 3.69922 229.837 3.69922 229.785C3.72588 229.433 3.81255 229.205 3.95921 229.101H4.2392C5.17249 229.061 5.85246 228.736 6.27911 228.123C6.3591 228.045 7.56572 226.057 9.89895 222.159C12.2322 218.262 13.4188 216.287 13.4588 216.235C13.5521 216.078 13.7121 216 13.9388 216H14.0988H14.4388C14.5188 216.117 14.5588 216.182 14.5588 216.196L15.1187 222.511C15.492 226.722 15.692 228.846 15.7187 228.885C15.7854 229.029 16.2187 229.101 17.0186 229.101C17.352 229.101 17.5186 229.166 17.5186 229.296C17.5186 229.322 17.4986 229.413 17.4586 229.57C17.4186 229.765 17.3853 229.883 17.3586 229.922C17.332 229.961 17.2386 229.987 17.0786 230C17.0386 230 16.9453 230 16.7987 230C16.652 230 16.392 229.993 16.0187 229.98C15.6454 229.967 15.1587 229.961 14.5588 229.961C13.3055 229.961 12.4855 229.974 12.0989 230H11.8589C11.7789 229.922 11.7389 229.863 11.7389 229.824C11.7389 229.785 11.7522 229.668 11.7789 229.472C11.8322 229.303 11.8722 229.198 11.8989 229.159L11.9789 229.101H12.3788C13.0988 229.061 13.5255 228.951 13.6588 228.768L13.4188 225.835H8.65901L7.97904 226.969C7.43239 227.869 7.15907 228.397 7.15907 228.553ZM13.3188 224.916C13.3188 224.773 13.2388 223.756 13.0788 221.866C12.9188 219.976 12.8255 219.024 12.7988 219.011L12.2589 219.852C12.0455 220.204 11.6255 220.901 10.9989 221.944L9.19898 224.916L11.2589 224.936C12.6322 224.936 13.3188 224.929 13.3188 224.916Z" fill="black"></path></g><g clip-path="url(#clip1_2023:41029)"><path d="M152.87 72.9429C152.49 72.9429 152.266 72.9361 152.195 72.9224C152.125 72.9087 152.09 72.8336 152.09 72.6969C152.09 72.328 152.167 72.1025 152.322 72.0205C152.336 72.0068 153.249 72 155.062 72C158.702 72 160.62 72.0137 160.817 72.041C161.702 72.1776 162.44 72.4851 163.03 72.9634C163.62 73.4417 163.922 74.0703 163.937 74.8492C163.937 75.7238 163.529 76.5095 162.714 77.2064C161.899 77.9034 160.964 78.3748 159.91 78.6208L159.7 78.6823C160.599 78.8053 161.337 79.1196 161.913 79.6252C162.489 80.1308 162.784 80.7594 162.798 81.511C162.798 82.5085 162.292 83.4719 161.281 84.4012C160.269 85.3304 159.025 85.8565 157.549 85.9795C157.451 85.9932 155.969 86 153.102 86C150.291 86 148.865 85.9863 148.823 85.959C148.766 85.918 148.738 85.8633 148.738 85.795C148.738 85.6994 148.752 85.6037 148.78 85.5081C148.851 85.2484 148.921 85.1049 148.991 85.0776C149.047 85.0639 149.153 85.0571 149.307 85.0571H149.434C149.813 85.0571 150.235 85.0366 150.699 84.9956C150.895 84.9546 151.029 84.8726 151.099 84.7496C151.141 84.695 151.647 82.7955 152.617 79.0512C153.587 75.307 154.071 73.3324 154.071 73.1274C154.071 73.0317 153.671 72.9702 152.87 72.9429ZM161.681 74.8492C161.681 74.4392 161.576 74.0566 161.365 73.7013C161.154 73.346 160.81 73.1137 160.332 73.0044C160.234 72.9771 159.587 72.9566 158.393 72.9429C158.112 72.9429 157.816 72.9429 157.507 72.9429C157.198 72.9429 156.952 72.9497 156.77 72.9634H156.495C156.285 72.9771 156.151 73.0454 156.095 73.1684C156.067 73.223 155.842 74.0429 155.42 75.6281C155.42 75.6691 155.413 75.7101 155.399 75.7511L154.746 78.3338H156.453C157.592 78.3338 158.245 78.3202 158.414 78.2928C159.257 78.1562 160.009 77.7599 160.669 77.104C161.33 76.448 161.667 75.6964 161.681 74.8492ZM160.543 81.306C160.543 80.7047 160.381 80.206 160.058 79.8097C159.735 79.4134 159.313 79.1811 158.793 79.1127C158.709 79.0991 158.126 79.0922 157.044 79.0922C155.385 79.0922 154.549 79.0991 154.535 79.1127C154.535 79.1401 154.416 79.6388 154.177 80.6091C153.938 81.5793 153.692 82.5427 153.439 83.4993L153.06 84.9341C153.06 84.9888 153.144 85.0161 153.313 85.0161C153.481 85.0161 154.05 85.0298 155.02 85.0571C156.271 85.0571 156.945 85.0503 157.044 85.0366C157.915 84.9409 158.716 84.5447 159.447 83.8477C160.177 83.1508 160.543 82.3036 160.543 81.306Z" fill="black"></path></g><g clip-path="url(#clip2_2023:41029)"><path d="M90.9805 224.724C90.9805 223.247 91.4177 221.829 92.2922 220.468C93.1667 219.107 94.2697 218.028 95.601 217.232C96.9324 216.436 98.2637 216.032 99.595 216.019C100.77 216.019 101.703 216.347 102.395 217.001C102.512 217.13 102.61 217.239 102.688 217.329C102.767 217.419 102.819 217.483 102.845 217.521L102.865 217.579C102.904 217.579 103.08 217.412 103.393 217.078C103.485 217.001 103.583 216.912 103.687 216.809C103.791 216.706 103.896 216.603 104 216.501C104.105 216.398 104.17 216.327 104.196 216.289L104.49 216H104.607C104.79 216 104.881 216.045 104.881 216.135C104.881 216.186 104.672 217.066 104.255 218.773C103.785 220.558 103.55 221.456 103.55 221.469C103.524 221.533 103.491 221.572 103.452 221.585C103.413 221.597 103.295 221.61 103.1 221.623H102.786C102.708 221.546 102.669 221.488 102.669 221.45C102.669 221.437 102.675 221.392 102.688 221.315C102.702 221.238 102.715 221.11 102.728 220.93C102.741 220.75 102.747 220.545 102.747 220.314C102.747 219.402 102.538 218.606 102.121 217.926C101.703 217.245 100.992 216.899 99.9866 216.886C99.6473 216.886 99.2818 216.931 98.8902 217.021C98.4986 217.11 98.0288 217.265 97.4806 217.483C96.9324 217.701 96.3907 218.061 95.8555 218.561C95.3204 219.062 94.844 219.659 94.4263 220.352C94.0086 221.084 93.6758 221.938 93.4278 222.913C93.1798 223.889 93.0558 224.685 93.0558 225.301C93.0558 226.765 93.5518 227.818 94.5438 228.459C95.1703 228.896 95.9404 229.114 96.854 229.114C98.0418 229.114 99.0991 228.678 100.026 227.805C100.952 226.932 101.566 225.982 101.866 224.955C101.918 224.788 101.958 224.691 101.984 224.666C102.01 224.64 102.114 224.627 102.297 224.627C102.558 224.627 102.688 224.685 102.688 224.801C102.688 224.865 102.682 224.923 102.669 224.974C102.29 226.348 101.481 227.529 100.241 228.517C99.0012 229.506 97.6698 230 96.2471 230C94.7722 230 93.5257 229.519 92.5076 228.556C91.4895 227.593 90.9805 226.315 90.9805 224.724Z" fill="black"></path></g><g clip-path="url(#clip3_2023:41029)"><path d="M45.9654 159.911L45.8364 160.164C45.7404 160.342 45.5837 160.574 45.3663 160.861C45.149 161.148 44.8877 161.447 44.5825 161.759L44.2946 162.018L43.6684 161.322L43.9563 161.063C44.4131 160.615 44.7846 160.144 45.0708 159.649C45.357 159.154 45.531 158.778 45.5928 158.522C45.6547 158.266 45.6963 158.027 45.7177 157.807C45.7107 157.759 45.7577 157.689 45.8588 157.598C45.9497 157.516 46.0628 157.469 46.1981 157.457L50.2683 161.977L54.3673 166.499C54.5016 166.506 54.603 166.497 54.6717 166.472C54.7404 166.446 54.8798 166.357 55.0899 166.205C55.3 166.052 55.6223 165.78 56.0568 165.389L56.4509 165.034L57.0771 165.729L56.9104 165.879C56.6709 166.04 55.854 166.748 54.4597 168.004C53.0855 169.241 52.3059 169.971 52.1209 170.192L51.9391 170.356L51.3129 169.66L51.7069 169.305C51.9292 169.105 52.1212 168.932 52.2829 168.787C52.4446 168.641 52.5663 168.522 52.6482 168.43C52.73 168.338 52.7973 168.251 52.8498 168.167C52.9024 168.083 52.9338 168.036 52.9439 168.027C52.954 168.018 52.9616 167.966 52.9667 167.87C52.9719 167.774 52.9841 167.727 53.0032 167.728L45.9654 159.911Z" fill="black"></path><path d="M53.9957 156.76C53.7229 157.005 53.424 157.11 53.099 157.074C52.774 157.039 52.4935 156.89 52.2575 156.628C51.6132 155.912 51.3228 155.051 51.3864 154.045C51.4501 153.038 51.881 152.176 52.6792 151.457C53.5987 150.629 54.6207 150.22 55.7453 150.229C56.8699 150.239 57.8411 150.688 58.6589 151.576C59.0491 152.009 59.3201 152.513 59.472 153.088C59.6238 153.663 59.6899 154.224 59.6701 154.771C59.6504 155.318 59.582 156.055 59.465 156.982C59.3826 157.622 59.2948 158.54 59.2017 159.737L59.0698 161.389L60.2353 160.367C61.8217 158.939 62.6427 158.154 62.6984 158.013C62.7509 157.929 62.4683 157.371 61.8506 156.339L61.8097 156.294L62.416 155.748L62.4568 155.794C62.474 155.833 62.8212 156.351 63.4986 157.347C64.1759 158.343 64.5176 158.875 64.5236 158.942L64.5644 158.988L58.9414 164.051L58.6828 163.764L58.5194 163.582C58.4559 163.512 58.4181 163.409 58.4062 163.273C58.3942 163.138 58.3869 162.825 58.3844 162.335C58.387 161.749 58.3855 161.239 58.3799 160.806C58.3801 160.623 58.384 160.282 58.3915 159.783C58.3991 159.283 58.403 158.942 58.4032 158.759C58.4034 158.576 58.4002 158.278 58.3935 157.864C58.3869 157.451 58.374 157.152 58.3551 156.968C58.3361 156.785 58.3161 156.529 58.2953 156.201C58.2744 155.873 58.2353 155.616 58.1779 155.431C58.1206 155.245 58.0648 155.031 58.0105 154.787C57.9562 154.544 57.8767 154.324 57.7719 154.126C57.6672 153.929 57.5664 153.745 57.4696 153.577C57.3729 153.409 57.2383 153.229 57.0659 153.037C56.4942 152.402 55.8278 152.008 55.0668 151.853C54.3058 151.699 53.607 151.908 52.9704 152.482C52.637 152.782 52.4211 153.131 52.3228 153.53C52.2244 153.929 52.1974 154.254 52.2415 154.507C52.2857 154.759 52.3214 154.9 52.3486 154.93C52.3577 154.94 52.3875 154.923 52.438 154.877C52.6199 154.714 52.8703 154.616 53.1894 154.584C53.5084 154.552 53.8131 154.698 54.1035 155.02C54.3304 155.272 54.4401 155.557 54.4328 155.874C54.4254 156.19 54.2797 156.486 53.9957 156.76Z" fill="black"></path><path d="M66.1285 155.937C65.9107 155.695 65.806 155.406 65.8145 155.07C65.8229 154.734 65.9585 154.447 66.2212 154.211C66.4637 153.992 66.7485 153.882 67.0755 153.879C67.4026 153.877 67.6937 154.007 67.9489 154.27C68.1757 154.522 68.285 154.816 68.2765 155.152C68.2681 155.488 68.1326 155.775 67.8699 156.011C67.6071 156.248 67.3128 156.358 66.9867 156.341C66.6607 156.324 66.3746 156.19 66.1285 155.937Z" fill="black"></path><path d="M70.3263 149.504C70.5441 149.746 70.6448 150.02 70.6283 150.327C70.6118 150.634 70.4874 150.892 70.255 151.101L70.1489 151.196C71.3307 151.574 72.3055 151.417 73.0734 150.726C73.7807 150.089 74.0238 149.323 73.8026 148.427C73.6951 147.921 73.2103 147.19 72.3481 146.232C71.4134 145.194 70.6462 144.616 70.0467 144.499C69.4845 144.403 69.0418 144.501 68.7184 144.792L68.6275 144.874C67.8394 145.583 67.5518 146.463 67.7647 147.512C67.7878 147.619 67.7888 147.691 67.7675 147.729C67.7463 147.766 67.6796 147.844 67.5674 147.964C67.3956 148.118 67.2724 148.174 67.1977 148.132C67.1412 148.11 66.3371 147.237 64.7852 145.514L63.0291 143.563C62.5754 143.059 62.3738 142.785 62.4243 142.739C62.4263 142.701 62.4375 142.673 62.4577 142.654C62.4678 142.645 62.6102 142.59 62.8849 142.489C63.1596 142.387 63.51 142.218 63.9363 141.98C64.3625 141.742 64.7777 141.441 65.1819 141.078C65.8993 140.432 66.4594 139.672 66.862 138.798C66.9066 138.685 66.9541 138.606 67.0046 138.56C67.0854 138.488 67.2075 138.542 67.3709 138.723L67.5479 138.92C67.5996 140.644 67.0041 142.065 65.7612 143.184C65.448 143.466 65.1379 143.691 64.8308 143.857L64.652 143.964L66.9934 146.564C67.0583 146.25 67.1101 146.003 67.1486 145.822C67.1872 145.641 67.2964 145.397 67.4764 145.089C67.6564 144.781 67.8778 144.509 68.1405 144.272C68.959 143.535 69.9461 143.239 71.1018 143.385C72.2575 143.531 73.2392 144.052 74.0469 144.949C74.8818 145.876 75.2709 146.959 75.2141 148.196C75.1573 149.433 74.6687 150.476 73.7482 151.323C72.9297 152.06 72.0279 152.379 71.0427 152.281C70.0576 152.182 69.2564 151.79 68.6393 151.105C68.4215 150.863 68.3046 150.621 68.2887 150.38C68.2728 150.139 68.3074 149.944 68.3923 149.794C68.4773 149.645 68.5753 149.52 68.6865 149.42C68.9391 149.192 69.2233 149.091 69.5393 149.117C69.8552 149.143 70.1176 149.272 70.3263 149.504Z" fill="black"></path><path d="M75.9048 144.424C74.9157 143.325 74.4608 141.946 74.5402 140.287C74.6196 138.628 75.1645 137.343 76.175 136.433C76.7408 135.924 77.2943 135.645 77.8354 135.595C78.3766 135.546 78.8292 135.713 79.1932 136.097C79.4564 136.39 79.5827 136.723 79.5723 137.098C79.5618 137.472 79.4146 137.796 79.1306 138.07C78.9386 138.243 78.7417 138.329 78.5398 138.328C78.3379 138.328 78.1462 138.226 77.9647 138.025C77.7832 137.823 77.6845 137.602 77.6686 137.361C77.6527 137.119 77.6685 136.914 77.7162 136.743C77.7638 136.572 77.8073 136.478 77.8467 136.461L77.8618 136.448C77.8437 136.427 77.7861 136.424 77.6892 136.439C77.5923 136.453 77.4499 136.508 77.262 136.604C77.0742 136.7 76.8842 136.835 76.6923 137.008C76.3891 137.281 76.1647 137.611 76.0189 137.997C75.8884 138.279 75.8118 138.631 75.7892 139.053C75.7439 139.897 75.9832 140.813 76.5072 141.801C77.0311 142.789 77.4514 143.469 77.768 143.841C78.1854 144.305 78.6299 144.534 79.1013 144.53C79.5414 144.571 79.9433 144.429 80.3071 144.101L80.3677 144.046C81.4994 143.027 82.0483 141.758 82.0146 140.237C82.0148 140.054 82.03 139.949 82.0603 139.922C82.1007 139.885 82.2072 139.872 82.3799 139.88C82.5525 139.889 82.6665 139.914 82.722 139.956C82.7775 139.997 82.8001 140.113 82.7898 140.305C82.7795 140.497 82.76 140.77 82.7314 141.124C82.7028 141.479 82.6116 141.834 82.4578 142.192C82.304 142.549 82.0941 142.967 81.8281 143.443C81.5621 143.92 81.2078 144.339 80.7653 144.701C80.0075 145.384 79.1784 145.692 78.278 145.627C77.3776 145.562 76.5865 145.161 75.9048 144.424Z" fill="black"></path><path d="M80.5293 136.756C80.485 136.687 80.4275 136.593 80.357 136.474C80.2864 136.355 80.1746 136.108 80.0216 135.735C79.8685 135.362 79.7563 135.034 79.6849 134.752C79.6135 134.469 79.6073 134.137 79.6662 133.756C79.7252 133.374 79.8703 133.088 80.1017 132.898C80.3331 132.708 80.5821 132.548 80.8487 132.417C81.1154 132.287 81.3486 132.241 81.5484 132.28C81.7483 132.319 81.9289 132.357 82.0904 132.394C82.2519 132.431 82.3785 132.491 82.4703 132.572L82.5959 132.651C82.6141 132.671 82.6282 132.677 82.6383 132.667L82.6553 132.351C82.6807 131.16 83.1027 130.196 83.9211 129.459C84.0929 129.305 84.2586 129.174 84.4182 129.066C84.5778 128.959 84.7409 128.876 84.9075 128.817C85.0742 128.759 85.2155 128.723 85.3316 128.709C85.4478 128.696 85.578 128.688 85.7223 128.686C85.8667 128.684 85.9762 128.704 86.0509 128.746C86.1255 128.788 86.2249 128.817 86.3491 128.833C86.4732 128.849 86.5479 128.892 86.5731 128.96C86.5982 129.029 86.6542 129.061 86.7411 129.055C86.8279 129.05 86.8697 129.076 86.8667 129.134L86.8518 128.874C86.8077 127.544 87.2202 126.489 88.0891 125.706C88.6348 125.215 89.1968 124.955 89.7753 124.927C90.3537 124.899 90.884 125.143 91.366 125.658C91.8288 126.172 92.3538 127.141 92.9409 128.565C93.528 129.989 93.9168 130.807 94.1074 131.019C94.2445 131.151 94.356 131.224 94.4418 131.238C94.5276 131.252 94.6261 131.209 94.7372 131.109C95.0201 130.854 95.1467 130.466 95.117 129.945C95.0872 129.425 94.9122 128.834 94.5918 128.173C94.5223 128.035 94.4936 127.942 94.5058 127.895C94.518 127.848 94.5897 127.765 94.7211 127.646C94.9231 127.464 95.0605 127.414 95.1331 127.494C95.1422 127.505 95.19 127.598 95.2767 127.776C95.459 128.141 95.6065 128.528 95.7191 128.938C95.8318 129.347 95.8535 129.839 95.7843 130.412C95.715 130.986 95.489 131.435 95.106 131.762C94.6311 132.19 94.1651 132.363 93.7078 132.282C93.2506 132.201 92.8904 132.014 92.6272 131.722C92.4548 131.53 92.0922 130.762 91.5393 129.416C90.9865 128.071 90.4837 127.136 90.031 126.613C89.4955 126.019 89.0055 125.921 88.5609 126.322L88.4852 126.39C87.6162 127.172 87.3419 128.341 87.6624 129.896L87.7196 130.173L89.0436 132.649C89.899 134.27 90.3468 135.153 90.387 135.299C90.5007 135.69 90.406 136.021 90.1029 136.294C89.9715 136.413 89.8337 136.473 89.6893 136.475C89.5449 136.477 89.4349 136.467 89.3592 136.444C89.2835 136.421 89.223 136.384 89.1776 136.333C89.0778 136.223 88.6007 135.347 87.7463 133.708L86.3045 131.009C86.1987 130.83 86.0414 130.625 85.8327 130.393C85.2972 129.799 84.8072 129.702 84.3626 130.102L84.2868 130.17C83.4179 130.953 83.1436 132.121 83.4641 133.676L83.5213 133.953L84.8453 136.429C85.7007 138.05 86.1485 138.933 86.1887 139.079C86.3024 139.47 86.2077 139.802 85.9045 140.074C85.7732 140.193 85.6399 140.258 85.5046 140.27C85.3693 140.283 85.2593 140.272 85.1745 140.239C85.0897 140.206 85.0343 140.165 85.0081 140.115C84.8901 139.984 84.3379 138.985 83.3515 137.117C82.348 135.21 81.8145 134.221 81.751 134.151C81.6451 133.972 81.5378 133.823 81.4289 133.702C81.1022 133.339 80.8125 133.271 80.5599 133.499C80.3376 133.699 80.2777 134.008 80.3803 134.427C80.4828 134.845 80.6434 135.258 80.8621 135.663C81.0807 136.068 81.1834 136.304 81.1702 136.371C81.1682 136.409 81.0964 136.492 80.955 136.62L80.7428 136.811C80.6277 136.805 80.5565 136.787 80.5293 136.756Z" fill="black"></path></g><path d="M380.762 54.9961L312.499 210.996H211.762L380.762 54.9961Z" fill="#FF4081" fill-opacity="0.3" stroke="#FF4081" stroke-width="3" stroke-linejoin="round"></path><path d="M233.762 210.996C233.762 208.37 233.244 205.769 232.239 203.342C231.234 200.916 229.761 198.711 227.904 196.854L213.762 210.996H233.762Z" stroke="#FF4081" stroke-width="1.5" stroke-linejoin="round"></path><path d="M238.762 210.996C238.762 207.713 238.115 204.462 236.859 201.429C235.602 198.396 233.761 195.64 231.439 193.318L213.762 210.996H238.762Z" stroke="#FF4081" stroke-width="1.5" stroke-linejoin="round"></path><path d="M348.702 83.4474C352.907 88.0631 358.135 91.6301 363.966 93.863L378.27 56.508L348.702 83.4474Z" stroke="#FF4081" stroke-width="1.5" stroke-linejoin="round"></path><path d="M300 210.496C300 208.387 300.534 206.312 301.551 204.465C302.569 202.618 304.037 201.058 305.82 199.931C307.602 198.804 309.641 198.146 311.746 198.019C313.851 197.892 315.954 198.299 317.86 199.203L312.5 210.496H300Z" stroke="#FF4081" stroke-width="1.5" stroke-linejoin="round"></path><path d="M294.762 210.496C294.762 207.543 295.509 204.639 296.933 202.053C298.358 199.466 300.414 197.283 302.909 195.705C305.405 194.127 308.259 193.206 311.206 193.028C314.154 192.85 317.098 193.42 319.765 194.686L312.262 210.496H294.762Z" stroke="#FF4081" stroke-width="1.5" stroke-linejoin="round"></path><path d="M289.762 210.496C289.762 206.7 290.722 202.965 292.554 199.64C294.385 196.315 297.029 193.508 300.237 191.479C303.446 189.45 307.116 188.266 310.905 188.037C314.694 187.808 318.48 188.542 321.909 190.169L312.262 210.496H289.762Z" stroke="#FF4081" stroke-width="1.5" stroke-linejoin="round"></path><g clip-path="url(#clip4_2023:41029)"><path d="M201.652 217.127C201.652 217.032 201.262 216.97 200.482 216.943C200.167 216.943 199.962 216.936 199.866 216.922C199.77 216.909 199.723 216.847 199.723 216.738C199.723 216.629 199.75 216.492 199.805 216.328C199.859 216.164 199.907 216.062 199.948 216.021C199.976 216.007 201.338 216 204.034 216C206.32 216.014 207.6 216.021 207.873 216.021C208.147 216.021 208.421 216.062 208.695 216.143C209.68 216.376 210.515 216.916 211.2 217.763C211.884 218.61 212.233 219.744 212.247 221.165C212.247 223.297 211.514 225.21 210.05 226.905C208.585 228.599 206.861 229.611 204.876 229.939L204.588 229.98L200.605 230H198.326H197.238C196.91 230 196.698 229.986 196.602 229.959C196.506 229.932 196.451 229.87 196.438 229.775C196.438 229.747 196.458 229.652 196.499 229.488C196.554 229.269 196.609 229.146 196.663 229.119C196.718 229.091 196.876 229.071 197.136 229.057C197.505 229.057 197.916 229.037 198.367 228.996C198.559 228.955 198.689 228.873 198.758 228.75C198.799 228.695 199.291 226.796 200.236 223.051C201.18 219.307 201.652 217.332 201.652 217.127ZM210.194 220.387C210.194 219.867 210.118 219.403 209.968 218.993C209.817 218.583 209.639 218.262 209.434 218.029C209.229 217.797 208.975 217.599 208.674 217.435C208.373 217.271 208.106 217.162 207.873 217.107C207.641 217.052 207.401 217.004 207.155 216.963C207.128 216.963 207.032 216.963 206.867 216.963C206.703 216.963 206.505 216.963 206.272 216.963C206.039 216.963 205.814 216.957 205.595 216.943H204.712C204.109 216.943 203.767 217.011 203.685 217.148C203.658 217.203 203.158 219.17 202.186 223.051C201.214 226.932 200.729 228.893 200.729 228.934C200.729 228.989 200.804 229.016 200.954 229.016C201.105 229.016 201.632 229.023 202.535 229.037C202.604 229.037 202.734 229.037 202.925 229.037C203.117 229.037 203.281 229.043 203.418 229.057C205.143 229.057 206.566 228.497 207.689 227.376C208.181 226.884 208.585 226.31 208.9 225.654C209.215 224.999 209.509 224.131 209.783 223.051C210.057 221.972 210.194 221.083 210.194 220.387Z" fill="black"></path></g><g clip-path="url(#clip5_2023:41029)"><path d="M386.76 44.6147C386.489 44.6147 386.354 44.5255 386.354 44.3471C386.354 44.2922 386.387 44.1275 386.455 43.8529C386.523 43.5784 386.557 43.3382 386.557 43.1324C386.557 42.7069 386.415 42.4461 386.13 42.35C385.846 42.2539 385.189 42.2059 384.16 42.2059H383.103C383.09 42.2333 382.853 43.1804 382.392 45.0471C381.932 46.9137 381.701 47.8745 381.701 47.9294C381.701 47.9843 381.776 48.0118 381.925 48.0118C382.074 48.0118 382.616 48.0255 383.55 48.0529C384.823 48.0529 385.663 48.0392 386.069 48.0118C386.475 47.9843 386.882 47.8951 387.288 47.7441C387.952 47.5245 388.5 47.1402 388.934 46.5912C389.367 46.0422 389.848 45.1431 390.376 43.8941C390.511 43.5922 390.599 43.4275 390.64 43.4C390.735 43.3725 390.836 43.3588 390.945 43.3588C391.216 43.3588 391.351 43.448 391.351 43.6265C389.929 47.1127 389.184 48.8902 389.116 48.9588C389.076 48.9863 387.139 49 383.306 49H379.467C378.085 49 377.395 48.9245 377.395 48.7735C377.395 48.7461 377.415 48.65 377.455 48.4853C377.51 48.2657 377.564 48.1422 377.618 48.1147C377.672 48.0873 377.828 48.0667 378.085 48.0529C378.451 48.0529 378.857 48.0324 379.304 47.9912C379.494 47.95 379.622 47.8676 379.69 47.7441C379.717 47.6755 380.198 45.7471 381.133 41.9588C382.067 38.1706 382.541 36.249 382.555 36.1941C382.555 36.098 382.528 36.05 382.473 36.05C382.365 36.0088 382.006 35.9745 381.397 35.9471H380.767C380.686 35.8647 380.645 35.8098 380.645 35.7824C380.645 35.7549 380.659 35.6382 380.686 35.4324C380.74 35.199 380.807 35.0549 380.889 35H392.143C392.238 35.0549 392.286 35.1304 392.286 35.2265C392.286 35.2951 392.198 36.0637 392.022 37.5324C391.845 39.001 391.751 39.7559 391.737 39.7971C391.71 39.8931 391.575 39.9412 391.331 39.9412H391.087C390.992 39.8725 390.945 39.7833 390.945 39.6735L391.006 39.2C391.046 38.8706 391.067 38.5137 391.067 38.1294C391.067 37.7176 391.019 37.3745 390.924 37.1C390.83 36.8255 390.701 36.6127 390.539 36.4618C390.376 36.3108 390.139 36.201 389.827 36.1324C389.516 36.0637 389.198 36.0157 388.873 35.9882C388.548 35.9608 388.114 35.9471 387.572 35.9471H386.618C385.426 35.9608 384.796 35.9814 384.728 36.0088C384.674 36.0363 384.634 36.098 384.606 36.1941C384.593 36.2353 384.383 37.0794 383.977 38.7265C383.57 40.3735 383.36 41.2108 383.347 41.2382C383.658 41.252 383.983 41.2588 384.322 41.2588H384.85C385.744 41.2588 386.36 41.1559 386.699 40.95C387.038 40.7441 387.342 40.1882 387.613 39.2824C387.667 39.0627 387.708 38.9392 387.735 38.9118C387.762 38.8843 387.877 38.8637 388.08 38.85C388.148 38.85 388.202 38.85 388.243 38.85C388.284 38.85 388.317 38.8569 388.344 38.8706C388.372 38.8843 388.385 38.8912 388.385 38.8912C388.385 38.8912 388.399 38.9186 388.426 38.9735C388.453 39.0284 388.473 39.0559 388.487 39.0559L387.816 41.7735C387.369 43.599 387.126 44.5255 387.085 44.5529C387.044 44.5941 386.936 44.6147 386.76 44.6147Z" fill="black"></path></g><g clip-path="url(#clip6_2023:41029)"><path d="M305.727 229.979C305.5 229.979 305.387 229.911 305.387 229.774C305.387 229.746 305.407 229.65 305.447 229.485C305.5 229.266 305.554 229.142 305.607 229.115C305.66 229.087 305.814 229.067 306.067 229.053C306.428 229.053 306.828 229.032 307.268 228.991C307.455 228.95 307.582 228.868 307.648 228.744C307.675 228.675 308.149 226.747 309.07 222.959C309.99 219.171 310.457 217.249 310.471 217.194C310.471 217.098 310.444 217.05 310.391 217.05C310.284 217.009 309.93 216.975 309.33 216.947H308.709C308.629 216.865 308.589 216.81 308.589 216.782C308.589 216.755 308.603 216.638 308.629 216.432C308.683 216.199 308.749 216.055 308.829 216H319.618C319.711 216.055 319.758 216.13 319.758 216.226C319.758 216.295 319.671 217.064 319.498 218.532C319.324 220.001 319.231 220.756 319.218 220.797C319.191 220.893 319.057 220.941 318.817 220.941H318.577C318.484 220.873 318.437 220.783 318.437 220.674C318.437 220.66 318.457 220.495 318.497 220.179C318.537 219.864 318.557 219.5 318.557 219.088C318.557 218.676 318.51 218.34 318.417 218.079C318.323 217.819 318.197 217.606 318.037 217.441C317.876 217.276 317.63 217.167 317.296 217.112C316.962 217.057 316.622 217.009 316.275 216.968C315.928 216.926 315.448 216.92 314.834 216.947H314.374C313.28 216.961 312.699 216.981 312.632 217.009C312.566 217.036 312.519 217.091 312.492 217.174C312.479 217.187 312.252 218.086 311.812 219.871L311.171 222.526H312.272C312.312 222.526 312.466 222.526 312.732 222.526C312.999 222.526 313.186 222.52 313.293 222.506C313.4 222.492 313.546 222.472 313.733 222.444C313.92 222.417 314.08 222.369 314.214 222.3C314.347 222.231 314.46 222.149 314.554 222.053C314.727 221.888 314.874 221.662 314.994 221.374C315.114 221.085 315.201 220.825 315.254 220.591C315.308 220.358 315.341 220.234 315.354 220.221C315.395 220.152 315.521 220.118 315.735 220.118H315.975C316.068 220.186 316.115 220.255 316.115 220.324C316.115 220.365 315.908 221.264 315.495 223.021C315.081 224.777 314.854 225.683 314.814 225.738C314.787 225.834 314.654 225.882 314.414 225.882H314.174C314.08 225.8 314.033 225.718 314.033 225.635C314.033 225.594 314.067 225.443 314.134 225.182C314.2 224.922 314.234 224.647 314.234 224.359C314.234 223.961 314.1 223.714 313.833 223.618C313.566 223.522 312.973 223.474 312.052 223.474H310.951L310.311 226.088C309.884 227.79 309.67 228.682 309.67 228.765C309.67 228.957 310.264 229.053 311.451 229.053H311.952C312.032 229.135 312.072 229.183 312.072 229.197C312.072 229.211 312.059 229.348 312.032 229.609C311.979 229.787 311.912 229.918 311.832 230H311.491C310.944 229.973 309.937 229.959 308.469 229.959C307.602 229.959 306.941 229.959 306.488 229.959C306.034 229.959 305.78 229.966 305.727 229.979Z" fill="black"></path></g><g clip-path="url(#clip7_2023:41029)"><path d="M265.634 137.551C265.362 137.796 265.063 137.9 264.739 137.864C264.414 137.828 264.134 137.678 263.898 137.416C263.253 136.701 262.962 135.84 263.024 134.835C263.086 133.83 263.516 132.97 264.311 132.253C265.228 131.427 266.248 131.02 267.371 131.031C268.494 131.042 269.464 131.492 270.282 132.38C270.672 132.813 270.944 133.317 271.096 133.892C271.249 134.466 271.315 135.027 271.296 135.573C271.277 136.119 271.21 136.855 271.095 137.78C271.013 138.419 270.927 139.337 270.836 140.532L270.706 142.182L271.869 141.163C273.451 139.738 274.269 138.956 274.325 138.814C274.377 138.731 274.094 138.173 273.476 137.142L273.435 137.097L274.039 136.553L274.08 136.598C274.097 136.637 274.445 137.155 275.123 138.151C275.8 139.147 276.142 139.678 276.148 139.746L276.189 139.791L270.582 144.84L270.323 144.553L270.16 144.371C270.096 144.301 270.059 144.198 270.046 144.063C270.034 143.928 270.027 143.615 270.023 143.125C270.025 142.54 270.023 142.031 270.017 141.598C270.017 141.416 270.02 141.075 270.027 140.576C270.034 140.077 270.037 139.736 270.037 139.554C270.037 139.372 270.033 139.074 270.026 138.66C270.019 138.247 270.006 137.949 269.986 137.765C269.967 137.582 269.947 137.326 269.926 136.999C269.904 136.671 269.865 136.415 269.807 136.229C269.75 136.044 269.694 135.829 269.639 135.587C269.585 135.344 269.505 135.123 269.4 134.926C269.295 134.728 269.194 134.545 269.098 134.377C269.001 134.209 268.866 134.029 268.694 133.837C268.122 133.202 267.456 132.807 266.696 132.652C265.936 132.497 265.238 132.705 264.604 133.276C264.271 133.576 264.056 133.925 263.959 134.323C263.861 134.721 263.834 135.046 263.879 135.298C263.923 135.55 263.959 135.691 263.986 135.721C263.995 135.731 264.025 135.714 264.076 135.668C264.257 135.505 264.507 135.408 264.825 135.377C265.144 135.345 265.448 135.491 265.739 135.813C265.966 136.065 266.076 136.35 266.069 136.666C266.062 136.983 265.917 137.278 265.634 137.551Z" fill="black"></path><path d="M277.728 134.109C277.945 134.351 278.046 134.626 278.03 134.932C278.014 135.238 277.89 135.496 277.659 135.705L277.553 135.8C278.733 136.179 279.706 136.024 280.472 135.334C281.178 134.699 281.419 133.934 281.197 133.039C281.089 132.534 280.604 131.803 279.742 130.845C278.807 129.807 278.04 129.229 277.441 129.111C276.88 129.014 276.438 129.111 276.115 129.401L276.025 129.483C275.239 130.191 274.953 131.068 275.167 132.117C275.19 132.224 275.191 132.296 275.17 132.333C275.149 132.37 275.083 132.448 274.971 132.567C274.799 132.722 274.676 132.778 274.602 132.735C274.545 132.713 273.741 131.84 272.189 130.117L270.433 128.166C269.979 127.662 269.778 127.388 269.828 127.342C269.83 127.304 269.841 127.276 269.861 127.257C269.871 127.248 270.013 127.193 270.288 127.093C270.562 126.992 270.911 126.823 271.337 126.586C271.762 126.349 272.176 126.049 272.579 125.686C273.294 125.042 273.853 124.284 274.253 123.412C274.298 123.299 274.345 123.22 274.395 123.175C274.476 123.102 274.598 123.157 274.761 123.338L274.938 123.535C274.992 125.256 274.4 126.675 273.16 127.791C272.848 128.072 272.539 128.296 272.232 128.462L272.054 128.568L274.396 131.169C274.46 130.855 274.511 130.608 274.55 130.428C274.588 130.247 274.696 130.004 274.876 129.696C275.055 129.389 275.276 129.117 275.538 128.881C276.354 128.146 277.339 127.852 278.493 128C279.647 128.147 280.628 128.669 281.436 129.566C282.271 130.493 282.661 131.575 282.606 132.81C282.551 134.046 282.065 135.087 281.147 135.931C280.331 136.666 279.431 136.984 278.447 136.884C277.463 136.784 276.663 136.392 276.045 135.706C275.828 135.464 275.711 135.223 275.694 134.982C275.678 134.741 275.712 134.546 275.797 134.397C275.882 134.248 275.979 134.123 276.09 134.023C276.342 133.797 276.626 133.696 276.941 133.722C277.257 133.749 277.519 133.878 277.728 134.109Z" fill="black"></path><path d="M283.291 129.045C282.302 127.946 281.846 126.568 281.923 124.911C282 123.254 282.542 121.972 283.55 121.065C284.114 120.557 284.666 120.278 285.207 120.23C285.747 120.181 286.199 120.349 286.563 120.733C286.826 121.026 286.953 121.359 286.943 121.733C286.933 122.107 286.786 122.43 286.503 122.703C286.312 122.876 286.115 122.962 285.914 122.961C285.712 122.96 285.521 122.858 285.339 122.657C285.158 122.455 285.059 122.234 285.042 121.993C285.026 121.752 285.042 121.546 285.089 121.376C285.136 121.206 285.18 121.112 285.219 121.095L285.234 121.081C285.216 121.061 285.158 121.058 285.062 121.072C284.965 121.086 284.823 121.141 284.635 121.237C284.448 121.333 284.259 121.467 284.067 121.639C283.765 121.911 283.541 122.24 283.396 122.626C283.266 122.908 283.19 123.259 283.168 123.68C283.124 124.523 283.365 125.438 283.889 126.426C284.414 127.414 284.834 128.094 285.151 128.466C285.568 128.929 286.012 129.159 286.483 129.155C286.923 129.197 287.324 129.055 287.686 128.729L287.747 128.674C288.875 127.658 289.422 126.391 289.386 124.872C289.386 124.689 289.401 124.584 289.431 124.557C289.471 124.521 289.578 124.507 289.75 124.516C289.922 124.525 290.036 124.55 290.092 124.592C290.147 124.633 290.17 124.75 290.16 124.941C290.15 125.133 290.131 125.405 290.103 125.759C290.075 126.113 289.984 126.468 289.831 126.825C289.678 127.182 289.469 127.598 289.204 128.074C288.939 128.55 288.586 128.968 288.145 129.329C287.389 130.009 286.562 130.316 285.663 130.25C284.764 130.183 283.973 129.782 283.291 129.045Z" fill="black"></path><path d="M287.896 121.393C287.852 121.323 287.794 121.229 287.724 121.11C287.653 120.991 287.541 120.745 287.388 120.372C287.235 119.999 287.122 119.672 287.05 119.39C286.979 119.107 286.972 118.776 287.03 118.395C287.089 118.014 287.233 117.728 287.464 117.539C287.695 117.349 287.943 117.19 288.209 117.06C288.475 116.929 288.708 116.884 288.907 116.923C289.107 116.963 289.288 117.001 289.449 117.038C289.61 117.076 289.737 117.135 289.828 117.217L289.954 117.295C289.972 117.315 289.986 117.321 289.996 117.312L290.013 116.996C290.036 115.807 290.456 114.844 291.273 114.11C291.444 113.955 291.609 113.825 291.768 113.718C291.927 113.611 292.09 113.528 292.257 113.47C292.423 113.411 292.564 113.376 292.68 113.363C292.796 113.349 292.926 113.342 293.07 113.34C293.214 113.338 293.323 113.358 293.398 113.4C293.473 113.443 293.572 113.472 293.696 113.488C293.82 113.504 293.894 113.546 293.92 113.615C293.945 113.684 294.001 113.715 294.088 113.71C294.174 113.705 294.216 113.731 294.213 113.789L294.198 113.529C294.152 112.201 294.562 111.147 295.429 110.367C295.973 109.877 296.534 109.619 297.111 109.591C297.689 109.564 298.219 109.808 298.701 110.323C299.163 110.837 299.689 111.806 300.277 113.229C300.865 114.652 301.255 115.47 301.445 115.682C301.583 115.814 301.694 115.887 301.78 115.901C301.865 115.915 301.964 115.872 302.074 115.772C302.356 115.518 302.482 115.131 302.452 114.611C302.421 114.091 302.246 113.501 301.925 112.841C301.855 112.702 301.827 112.61 301.839 112.562C301.851 112.515 301.922 112.432 302.053 112.314C302.255 112.133 302.392 112.083 302.464 112.163C302.474 112.173 302.521 112.267 302.608 112.444C302.791 112.809 302.939 113.196 303.052 113.606C303.165 114.015 303.187 114.506 303.119 115.078C303.051 115.651 302.825 116.1 302.444 116.425C301.97 116.852 301.505 117.024 301.048 116.943C300.592 116.861 300.232 116.674 299.969 116.382C299.796 116.19 299.433 115.422 298.879 114.077C298.325 112.733 297.822 111.799 297.369 111.276C296.833 110.681 296.344 110.583 295.901 110.983L295.825 111.051C294.959 111.831 294.686 112.998 295.009 114.551L295.066 114.828L296.392 117.303C297.248 118.922 297.696 119.805 297.737 119.952C297.851 120.342 297.757 120.673 297.455 120.945C297.324 121.063 297.186 121.123 297.042 121.125C296.898 121.127 296.788 121.116 296.712 121.093C296.637 121.07 296.576 121.033 296.531 120.983C296.431 120.872 295.953 119.997 295.098 118.358L293.654 115.661C293.549 115.482 293.391 115.277 293.182 115.045C292.647 114.451 292.158 114.353 291.714 114.752L291.639 114.82C290.772 115.6 290.5 116.767 290.822 118.32L290.88 118.597L292.205 121.072C293.062 122.692 293.51 123.575 293.55 123.721C293.664 124.111 293.57 124.442 293.268 124.715C293.137 124.832 293.004 124.897 292.869 124.91C292.734 124.922 292.624 124.911 292.539 124.878C292.455 124.845 292.399 124.803 292.373 124.754C292.255 124.623 291.702 123.624 290.715 121.757C289.71 119.851 289.176 118.863 289.112 118.792C289.006 118.614 288.899 118.464 288.79 118.343C288.463 117.98 288.174 117.912 287.922 118.139C287.701 118.339 287.641 118.648 287.744 119.066C287.847 119.484 288.008 119.896 288.227 120.301C288.446 120.706 288.549 120.942 288.536 121.009C288.534 121.047 288.462 121.13 288.321 121.257L288.11 121.447C287.995 121.441 287.924 121.423 287.896 121.393Z" fill="black"></path></g><g clip-path="url(#clip8_2023:41029)"><path d="M342.44 160.749L342.445 161.033C342.444 161.234 342.415 161.512 342.358 161.867C342.301 162.221 342.211 162.607 342.088 163.024L341.956 163.387L341.077 163.067L341.209 162.704C341.401 162.096 341.508 161.507 341.527 160.937C341.547 160.367 341.524 159.954 341.458 159.7C341.392 159.445 341.317 159.215 341.232 159.011C341.203 158.972 341.212 158.889 341.258 158.761C341.3 158.646 341.378 158.552 341.491 158.478L347.208 160.559L352.95 162.627C353.072 162.57 353.157 162.515 353.206 162.46C353.254 162.406 353.335 162.262 353.449 162.029C353.563 161.797 353.719 161.406 353.918 160.858L354.099 160.362L354.979 160.682L354.902 160.892C354.767 161.146 354.379 162.151 353.739 163.91C353.108 165.642 352.763 166.65 352.704 166.931L352.621 167.16L351.741 166.84L351.922 166.343C352.024 166.063 352.112 165.821 352.186 165.617C352.261 165.413 352.312 165.252 352.341 165.132C352.37 165.013 352.388 164.904 352.395 164.806C352.402 164.707 352.408 164.652 352.413 164.639C352.417 164.626 352.399 164.576 352.359 164.489C352.318 164.403 352.307 164.355 352.324 164.347L342.44 160.749Z" fill="black"></path><path d="M348.002 155.046C348.002 155.046 347.511 154.868 346.53 154.511C345.549 154.153 344.884 153.522 344.535 152.616C344.186 151.71 344.168 150.809 344.48 149.912C344.809 149.007 345.369 148.302 346.159 147.796C346.949 147.29 347.772 147.193 348.626 147.504C349.008 147.643 349.339 147.843 349.62 148.104C349.9 148.364 350.107 148.627 350.242 148.893C350.376 149.158 350.483 149.42 350.561 149.68C350.64 149.939 350.695 150.147 350.725 150.302C350.755 150.457 350.78 150.546 350.801 150.568L351.071 150.363C351.263 150.231 351.455 150.099 351.648 149.967C351.84 149.835 351.947 149.759 351.969 149.738C353.069 149.056 354.193 148.924 355.34 149.341C356.346 149.708 357.085 150.395 357.555 151.403C358.026 152.411 358.054 153.504 357.64 154.68C357.223 155.827 356.554 156.651 355.635 157.154C354.716 157.656 353.779 157.733 352.823 157.386C351.447 156.885 350.599 155.645 350.279 153.668L349.905 153.921C349.642 154.129 349.452 154.254 349.335 154.298C348.446 154.797 347.511 154.868 346.53 154.511L348.002 155.046ZM350.097 151.134L350.062 150.992C350.039 150.897 350.022 150.825 350.01 150.778C349.999 150.73 349.977 150.65 349.946 150.538C349.915 150.426 349.879 150.326 349.838 150.239C349.798 150.152 349.747 150.054 349.685 149.945C349.624 149.837 349.567 149.736 349.513 149.645C349.46 149.553 349.381 149.452 349.277 149.342C349.173 149.232 349.085 149.135 349.015 149.052C348.944 148.969 348.828 148.89 348.667 148.817C348.506 148.744 348.37 148.681 348.26 148.626C347.712 148.427 347.18 148.442 346.663 148.672C346.146 148.903 345.749 149.241 345.471 149.688C345.425 149.773 345.342 149.981 345.222 150.312C345.032 150.834 345.019 151.385 345.183 151.964C345.348 152.544 345.676 152.93 346.169 153.124C346.462 153.231 346.76 153.245 347.062 153.168C347.364 153.09 347.61 152.992 347.797 152.873C347.985 152.753 348.305 152.509 348.757 152.14C348.853 152.074 348.923 152.02 348.967 151.978L350.097 151.134ZM356.825 154.362C357.094 153.623 357.109 152.907 356.87 152.214C356.632 151.521 356.207 151.064 355.595 150.841C355.378 150.762 355.163 150.72 354.948 150.714C354.734 150.708 354.547 150.727 354.387 150.769C354.227 150.812 354.036 150.901 353.813 151.037C353.591 151.172 353.423 151.277 353.309 151.351C353.196 151.425 353.007 151.566 352.744 151.773C352.481 151.98 352.31 152.113 352.231 152.171C352.052 152.307 351.861 152.454 351.659 152.612C351.458 152.769 351.289 152.895 351.154 152.99L351.002 153.108C350.975 153.185 351.016 153.409 351.126 153.781C351.236 154.153 351.475 154.586 351.843 155.081C352.212 155.576 352.674 155.932 353.23 156.149C353.982 156.422 354.7 156.373 355.384 156.002C356.067 155.63 356.548 155.084 356.825 154.362Z" fill="black"></path><path d="M356.163 147.975C354.774 147.47 353.724 146.467 353.014 144.968C352.304 143.469 352.181 142.082 352.644 140.808C352.904 140.094 353.261 139.59 353.715 139.293C354.17 138.997 354.648 138.933 355.149 139.101C355.519 139.235 355.787 139.47 355.954 139.805C356.121 140.14 356.143 140.494 356.022 140.868C355.933 141.11 355.8 141.278 355.622 141.372C355.443 141.466 355.227 141.466 354.972 141.374C354.717 141.281 354.526 141.132 354.398 140.927C354.271 140.722 354.188 140.533 354.15 140.36C354.111 140.188 354.106 140.085 354.132 140.051L354.139 140.032C354.114 140.023 354.062 140.047 353.983 140.105C353.904 140.163 353.804 140.278 353.684 140.45C353.563 140.623 353.459 140.83 353.371 141.072C353.232 141.455 353.189 141.85 353.242 142.259C353.259 142.568 353.357 142.914 353.536 143.297C353.892 144.061 354.534 144.757 355.461 145.383C356.388 146.008 357.078 146.411 357.533 146.591C358.119 146.804 358.619 146.799 359.033 146.574C359.441 146.405 359.728 146.092 359.895 145.633L359.923 145.556C360.442 144.129 360.329 142.754 359.585 141.429C359.499 141.268 359.463 141.169 359.477 141.13C359.495 141.08 359.583 141.018 359.739 140.945C359.896 140.872 360.008 140.841 360.077 140.851C360.145 140.861 360.22 140.954 360.301 141.127C360.382 141.301 360.493 141.551 360.634 141.876C360.776 142.202 360.862 142.558 360.895 142.945C360.927 143.332 360.938 143.798 360.928 144.342C360.917 144.887 360.802 145.422 360.581 145.948C360.234 146.903 359.647 147.563 358.822 147.926C357.997 148.289 357.111 148.306 356.163 147.975Z" fill="black"></path><path d="M356.635 139.057C356.563 139.017 356.468 138.96 356.35 138.889C356.232 138.817 356.017 138.652 355.707 138.395C355.396 138.138 355.143 137.901 354.947 137.686C354.752 137.47 354.59 137.18 354.463 136.817C354.335 136.453 354.329 136.133 354.444 135.857C354.558 135.582 354.703 135.324 354.877 135.084C355.05 134.845 355.235 134.695 355.429 134.636C355.624 134.577 355.801 134.526 355.961 134.484C356.121 134.441 356.261 134.434 356.38 134.463L356.528 134.473C356.553 134.483 356.568 134.481 356.573 134.468L356.439 134.181C355.902 133.12 355.821 132.073 356.197 131.041C356.275 130.825 356.36 130.632 356.45 130.463C356.541 130.294 356.646 130.144 356.765 130.015C356.884 129.885 356.992 129.787 357.088 129.721C357.185 129.655 357.296 129.587 357.422 129.518C357.548 129.449 357.655 129.415 357.74 129.417C357.826 129.42 357.927 129.399 358.044 129.355C358.161 129.311 358.247 129.313 358.302 129.362C358.356 129.411 358.42 129.412 358.495 129.367C358.569 129.322 358.618 129.326 358.642 129.378L358.507 129.155C357.843 128.005 357.711 126.882 358.109 125.786C358.36 125.098 358.734 124.606 359.231 124.311C359.728 124.016 360.31 123.983 360.978 124.211C361.628 124.448 362.546 125.056 363.734 126.037C364.921 127.017 365.649 127.556 365.917 127.654C366.1 127.706 366.232 127.718 366.315 127.69C366.397 127.662 366.464 127.579 366.515 127.438C366.644 127.082 366.574 126.681 366.303 126.236C366.032 125.791 365.6 125.352 365.006 124.92C364.88 124.831 364.811 124.762 364.8 124.715C364.788 124.667 364.812 124.561 364.873 124.395C364.965 124.14 365.063 124.031 365.165 124.069C365.177 124.073 365.264 124.133 365.424 124.249C365.756 124.486 366.068 124.758 366.36 125.066C366.652 125.375 366.903 125.798 367.111 126.335C367.319 126.873 367.332 127.375 367.147 127.842C366.929 128.441 366.6 128.811 366.158 128.953C365.717 129.096 365.311 129.1 364.941 128.965C364.699 128.877 364.018 128.369 362.898 127.442C361.777 126.515 360.894 125.927 360.249 125.677C359.497 125.404 359.019 125.547 358.815 126.108L358.78 126.203C358.381 127.299 358.689 128.457 359.703 129.677L359.883 129.894L362.216 131.457C363.732 132.486 364.543 133.055 364.647 133.165C364.931 133.456 365.003 133.792 364.864 134.174C364.804 134.34 364.71 134.458 364.584 134.527C364.458 134.597 364.356 134.639 364.278 134.654C364.2 134.669 364.13 134.665 364.066 134.642C363.926 134.591 363.093 134.042 361.569 132.997L359.028 131.293C358.851 131.185 358.615 131.078 358.322 130.971C357.57 130.697 357.092 130.841 356.888 131.401L356.853 131.497C356.455 132.593 356.762 133.751 357.776 134.971L357.957 135.188L360.289 136.751C361.805 137.779 362.616 138.348 362.72 138.459C363.004 138.749 363.076 139.086 362.937 139.468C362.877 139.634 362.79 139.754 362.676 139.828C362.563 139.902 362.461 139.944 362.37 139.955C362.28 139.965 362.212 139.954 362.165 139.923C362 139.863 361.043 139.24 359.294 138.056C357.512 136.844 356.577 136.223 356.488 136.19C356.31 136.082 356.145 136.001 355.992 135.945C355.533 135.778 355.246 135.854 355.13 136.172C355.028 136.452 355.121 136.753 355.408 137.074C355.695 137.395 356.031 137.683 356.414 137.938C356.798 138.193 356.999 138.353 357.019 138.418C357.035 138.453 357.011 138.559 356.946 138.738L356.849 139.005C356.744 139.054 356.673 139.071 356.635 139.057Z" fill="black"></path></g><defs><clipPath id="clip0_2023:41029"><rect width="15" height="14" fill="white" transform="translate(3 216)"></rect></clipPath><clipPath id="clip1_2023:41029"><rect width="16" height="14" fill="white" transform="translate(148 72)"></rect></clipPath><clipPath id="clip2_2023:41029"><rect width="14" height="14" fill="white" transform="translate(90 216)"></rect></clipPath><clipPath id="clip3_2023:41029"><rect width="63" height="14" fill="white" transform="translate(41.5391 161.486) rotate(-42)"></rect></clipPath><clipPath id="clip4_2023:41029"><rect width="17" height="14" fill="white" transform="translate(195.762 216)"></rect></clipPath><clipPath id="clip5_2023:41029"><rect width="15" height="14" fill="white" transform="translate(376.762 35)"></rect></clipPath><clipPath id="clip6_2023:41029"><rect width="15" height="14" fill="white" transform="translate(304.762 216)"></rect></clipPath><clipPath id="clip7_2023:41029"><rect width="47" height="14" fill="white" transform="translate(260.762 135.449) rotate(-42)"></rect></clipPath><clipPath id="clip8_2023:41029"><rect width="47" height="14" fill="white" transform="translate(339.277 164.207) rotate(-70)"></rect></clipPath></defs></svg> 